<?xml version="1.0" encoding="UTF-8"?><svg id="Layer_1" xmlns="http://www.w3.org/2000/svg" viewBox="0 0 1080 399.58"><defs><style>.cls-1{fill:#003d31;}</style></defs><path class="cls-1" d="m57.79,356.78v13.23h-6.96v-13.12l-14.73-24.37h7.44l10.98,18.26,11.09-18.26h6.85l-14.67,24.26Zm44.76-24.78c-11.63,0-20.2,8.18-20.2,19.28s8.57,19.28,20.2,19.28,20.2-8.13,20.2-19.28-8.57-19.28-20.2-19.28Zm0,32.42c-7.54,0-13.19-5.5-13.19-13.14s5.65-13.19,13.19-13.19,13.19,5.5,13.19,13.19-5.65,13.14-13.19,13.14Zm36.89-10.75v-21.15h6.96v20.88c0,7.71,3.48,11.03,9.53,11.03s9.48-3.32,9.48-11.03v-20.88h6.85v21.15c0,10.92-6.16,16.87-16.39,16.87s-16.44-5.94-16.44-16.87Zm75.6,4.03c5.11-2,7.98-6.18,7.98-11.83,0-8.32-6.08-13.34-15.97-13.34h-15.43v37.48h6.96v-10.95h8.47c.49,0,.97,0,1.46-.05l7.64,11h7.5l-8.62-12.32Zm-8.27-4.33h-8.18v-14.94h8.18c6.08,0,9.25,2.73,9.25,7.45s-3.16,7.5-9.25,7.5Zm112.85-20.85l-12.42,37.49h-7.39l-9.26-27.74-9.43,27.74h-7.44l-12.43-37.49h7.23l9.32,28.49,9.69-28.49h6.42l9.48,28.65,9.59-28.65h6.64Zm32.45-.52c-11.63,0-20.2,8.18-20.2,19.28s8.57,19.28,20.2,19.28,20.2-8.13,20.2-19.28-8.57-19.28-20.2-19.28Zm0,32.42c-7.54,0-13.19-5.5-13.19-13.14s5.65-13.19,13.19-13.19,13.19,5.5,13.19,13.19-5.65,13.14-13.19,13.14Zm60.6-6.72c5.11-2,7.98-6.18,7.98-11.83,0-8.32-6.08-13.34-15.97-13.34h-15.43v37.48h6.96v-10.95h8.47c.49,0,.97,0,1.46-.05l7.64,11h7.5l-8.62-12.32Zm-8.27-4.33h-8.18v-14.94h8.18c6.08,0,9.25,2.73,9.25,7.45s-3.16,7.5-9.25,7.5Zm46.56.95l-5.94,6.11v9.59h-6.96v-37.49h6.96v19.23l18.53-19.23h7.82l-15.74,16.76,16.71,20.73h-8.14l-13.23-15.69Zm42.73-15.96v11.41h18.1v5.89h-18.1v14.35h-6.96v-37.49h27.36v5.84h-20.4Zm53.87-6.36c-11.63,0-20.2,8.18-20.2,19.28s8.57,19.28,20.2,19.28,20.2-8.13,20.2-19.28-8.57-19.28-20.2-19.28Zm0,32.42c-7.54,0-13.19-5.5-13.19-13.14s5.65-13.19,13.19-13.19,13.19,5.5,13.19,13.19-5.65,13.14-13.19,13.14Zm60.6-6.72c5.11-2,7.98-6.18,7.98-11.83,0-8.32-6.08-13.34-15.97-13.34h-15.43v37.48h6.96v-10.95h8.47c.49,0,.97,0,1.46-.05l7.64,11h7.5l-8.62-12.32Zm-8.27-4.33h-8.18v-14.94h8.18c6.08,0,9.25,2.73,9.25,7.45s-3.16,7.5-9.25,7.5Zm30.98-2.11c0-11.19,8.57-19.28,20.08-19.28,6.1,0,11.35,2.2,14.83,6.27l-4.5,4.23c-2.73-2.94-6.1-4.39-10.01-4.39-7.76,0-13.39,5.46-13.39,13.17s5.62,13.17,13.39,13.17c3.91,0,7.28-1.45,10.01-4.44l4.5,4.28c-3.48,4.07-8.73,6.27-14.89,6.27-11.46,0-20.03-8.09-20.03-19.28Zm79.36,12.91v5.84h-28.11v-37.49h27.36v5.84h-20.4v9.75h18.1v5.73h-18.1v10.33h21.15Zm68.35-13.67c2.92-1.56,4.87-4.38,4.87-8.23,0-5.94-4.87-9.74-13.82-9.74h-17.57v37.48h18.64c9.64,0,14.65-3.75,14.65-10.17,0-4.87-2.73-8.03-6.77-9.35Zm-19.57-12.51h9.83c4.82,0,7.54,1.7,7.54,5.21s-2.73,5.11-7.54,5.11h-9.83v-10.32Zm11.24,26.58h-11.24v-10.85h11.24c5.26,0,8.08,1.66,8.08,5.4s-2.82,5.45-8.08,5.45Zm60.29-.4v5.84h-28.11v-37.49h27.36v5.84h-20.4v9.75h18.1v5.73h-18.1v10.33h21.15Zm50.71-31.65v37.49h-5.73l-20.67-25.38v25.38h-6.91v-37.49h5.73l20.67,25.38v-25.38h6.91Zm47.82,31.65v5.84h-28.11v-37.49h27.36v5.84h-20.4v9.75h18.1v5.73h-18.1v10.33h21.15Zm24.36-25.81v11.41h18.1v5.89h-18.1v14.35h-6.96v-37.49h27.36v5.84h-20.4Zm36.78-5.84h6.96v37.49h-6.96v-37.49Zm34.32,5.89h-12.42v-5.89h31.81v5.89h-12.43v31.59h-6.96v-31.59Zm-742.37-77.28V38.22h152.8v53.76h-87.53v29.83h79.86v53.76h-79.86v31.8h87.53v53.76h-152.8Zm362.04-40.32h-87.15l-15.74,40.32h-72.95l95.98-222.91h72.95l95.98,222.91h-72.95l-16.13-40.32Zm-65.65-53.76h44.54l-22.27-56.05-22.27,56.05Zm293.87,94.08l-49.14-123.59v123.59h-65.27V38.22h80.62l62.2,151.77,62.2-151.77h80.24v222.91h-65.27v-123.91l-49.14,123.91h-56.44ZM66.5,143.42v.36l79.09,117.41h9.75c6.52,0,12.75-.51,18.66-1.47l-107.5-116.3Zm136.7,3.45c15.5-8.84,25.14-24.57,25.14-48.48,0-35.38-30.3-59.95-74.37-59.95H37.25v53.72h16.03c7.3,0,13.22,5.63,13.22,12.58v38.37l162.35,80.58c3.7-7.48,5.69-15.8,5.69-24.73,0-25.22-12.4-42.26-31.34-52.08Zm-136.7-3.45l132.88,108.39c6.6-3.23,12.42-7.23,17.33-11.87l-150.21-96.82v.31Zm51.84,117.77l-51.84-117.41v51.14c0,6.94-5.92,12.58-13.22,12.58h-16.03v53.56l29.25.14h51.84Z"/></svg>